<svg width="128" height="66" viewBox="0 0 128 66" fill="none" xmlns="http://www.w3.org/2000/svg">
<path d="M7.65511 22.004C8.54178 22.004 9.28378 22.088 9.88111 22.256C10.4878 22.4147 10.9404 22.6807 11.2391 23.054C11.5471 23.418 11.7011 23.9127 11.7011 24.538C11.7011 24.9113 11.6404 25.252 11.5191 25.56C11.3978 25.868 11.2204 26.12 10.9871 26.316C10.7631 26.512 10.4878 26.638 10.1611 26.694V26.764C10.4971 26.8293 10.8004 26.946 11.0711 27.114C11.3418 27.282 11.5564 27.5247 11.7151 27.842C11.8738 28.1593 11.9531 28.5793 11.9531 29.102C11.9531 29.7087 11.8038 30.2313 11.5051 30.67C11.2158 31.0993 10.7958 31.4307 10.2451 31.664C9.69444 31.888 9.04111 32 8.28511 32H4.54711V22.004H7.65511ZM7.89311 25.966C8.50911 25.966 8.93378 25.868 9.16711 25.672C9.40978 25.476 9.53111 25.1913 9.53111 24.818C9.53111 24.4353 9.39111 24.16 9.11111 23.992C8.83111 23.824 8.38778 23.74 7.78111 23.74H6.66111V25.966H7.89311ZM6.66111 27.646V30.25H8.04711C8.68178 30.25 9.12511 30.1287 9.37711 29.886C9.62911 29.634 9.75511 29.3027 9.75511 28.892C9.75511 28.64 9.69911 28.4207 9.58711 28.234C9.48444 28.0473 9.30244 27.9027 9.04111 27.8C8.77978 27.6973 8.42511 27.646 7.97711 27.646H6.66111ZM13.7854 32V24.356H15.8714V27.31H16.8794C17.6634 27.31 18.3074 27.394 18.8114 27.562C19.3154 27.7207 19.6887 27.968 19.9314 28.304C20.1834 28.64 20.3094 29.06 20.3094 29.564C20.3094 30.0587 20.1927 30.488 19.9594 30.852C19.7354 31.216 19.376 31.5007 18.8814 31.706C18.396 31.902 17.752 32 16.9494 32H13.7854ZM16.8374 30.558C17.248 30.558 17.5794 30.4833 17.8314 30.334C18.0927 30.1847 18.2234 29.9373 18.2234 29.592C18.2234 29.2933 18.102 29.0787 17.8594 28.948C17.626 28.8173 17.276 28.752 16.8094 28.752H15.8714V30.558H16.8374ZM21.4154 32V24.356H23.5014V32H21.4154ZM31.4327 24.216C31.9834 24.216 32.4967 24.2907 32.9727 24.44C33.458 24.58 33.8454 24.7993 34.1347 25.098C34.4334 25.3967 34.5827 25.7793 34.5827 26.246C34.5827 26.7033 34.4427 27.0673 34.1627 27.338C33.892 27.6087 33.5234 27.8047 33.0567 27.926V27.996C33.3834 28.0707 33.6774 28.178 33.9387 28.318C34.2 28.4487 34.4054 28.6307 34.5547 28.864C34.7134 29.088 34.7927 29.3913 34.7927 29.774C34.7927 30.194 34.6574 30.586 34.3867 30.95C34.1254 31.3047 33.7147 31.594 33.1547 31.818C32.604 32.0327 31.8947 32.14 31.0267 32.14C30.616 32.14 30.2287 32.1213 29.8647 32.084C29.5007 32.0467 29.1694 31.9953 28.8707 31.93C28.572 31.8553 28.3107 31.7667 28.0867 31.664V29.942C28.404 30.0913 28.7914 30.2267 29.2487 30.348C29.7154 30.4693 30.21 30.53 30.7327 30.53C31.1154 30.53 31.456 30.502 31.7547 30.446C32.0627 30.39 32.3054 30.2967 32.4827 30.166C32.6694 30.0353 32.7627 29.8627 32.7627 29.648C32.7627 29.4427 32.6834 29.2747 32.5247 29.144C32.366 29.004 32.128 28.9013 31.8107 28.836C31.4934 28.7707 31.0874 28.738 30.5927 28.738H29.7807V27.296H30.5507C31.2414 27.296 31.7734 27.24 32.1467 27.128C32.5294 27.016 32.7207 26.806 32.7207 26.498C32.7207 26.2553 32.5994 26.0733 32.3567 25.952C32.114 25.8213 31.7174 25.756 31.1667 25.756C30.8027 25.756 30.406 25.798 29.9767 25.882C29.5474 25.966 29.1414 26.0873 28.7587 26.246L28.1427 24.79C28.5814 24.622 29.062 24.4867 29.5847 24.384C30.1074 24.272 30.7234 24.216 31.4327 24.216ZM43.2863 24.356V30.474H44.4063V34.744H42.5303V32H37.3923V34.744H35.5163V30.474H36.1603C36.4963 29.9607 36.781 29.3773 37.0143 28.724C37.2476 28.0613 37.4343 27.3567 37.5743 26.61C37.7143 25.8633 37.817 25.112 37.8823 24.356H43.2863ZM39.6323 25.924C39.5576 26.484 39.4643 27.03 39.3523 27.562C39.2403 28.0847 39.1003 28.5887 38.9323 29.074C38.7736 29.5593 38.5776 30.026 38.3443 30.474H41.2003V25.924H39.6323ZM48.8592 24.216C49.5685 24.216 50.1752 24.3513 50.6792 24.622C51.1925 24.8927 51.5892 25.2847 51.8692 25.798C52.1492 26.3113 52.2892 26.9413 52.2892 27.688V28.696H47.3612C47.3799 29.284 47.5525 29.746 47.8792 30.082C48.2152 30.418 48.6772 30.586 49.2652 30.586C49.7599 30.586 50.2079 30.5393 50.6092 30.446C51.0105 30.3433 51.4259 30.1893 51.8552 29.984V31.594C51.4819 31.7807 51.0852 31.916 50.6652 32C50.2545 32.0933 49.7552 32.14 49.1672 32.14C48.4019 32.14 47.7252 32 47.1372 31.72C46.5492 31.4307 46.0872 30.9967 45.7512 30.418C45.4152 29.8393 45.2472 29.1113 45.2472 28.234C45.2472 27.338 45.3965 26.596 45.6952 26.008C46.0032 25.4107 46.4279 24.9627 46.9692 24.664C47.5105 24.3653 48.1405 24.216 48.8592 24.216ZM48.8732 25.7C48.4719 25.7 48.1359 25.8307 47.8652 26.092C47.6039 26.3533 47.4499 26.7593 47.4032 27.31H50.3292C50.3292 27.002 50.2732 26.7267 50.1612 26.484C50.0585 26.2413 49.8999 26.05 49.6852 25.91C49.4705 25.77 49.1999 25.7 48.8732 25.7ZM57.0887 32.14C56.3327 32.14 55.6887 32.0047 55.1567 31.734C54.6247 31.454 54.2187 31.0247 53.9387 30.446C53.6587 29.8673 53.5187 29.1253 53.5187 28.22C53.5187 27.2867 53.6773 26.526 53.9947 25.938C54.312 25.35 54.7507 24.916 55.3107 24.636C55.88 24.356 56.5333 24.216 57.2707 24.216C57.7933 24.216 58.246 24.2673 58.6287 24.37C59.0207 24.4727 59.3613 24.594 59.6507 24.734L59.0347 26.344C58.708 26.2133 58.4 26.106 58.1107 26.022C57.8307 25.938 57.5507 25.896 57.2707 25.896C56.9067 25.896 56.6033 25.9847 56.3607 26.162C56.118 26.33 55.936 26.5867 55.8147 26.932C55.7027 27.268 55.6467 27.6927 55.6467 28.206C55.6467 28.71 55.7073 29.13 55.8287 29.466C55.9593 29.7927 56.146 30.04 56.3887 30.208C56.6313 30.3667 56.9253 30.446 57.2707 30.446C57.7093 30.446 58.0967 30.39 58.4327 30.278C58.7687 30.1567 59.0953 29.9933 59.4127 29.788V31.566C59.0953 31.7713 58.7593 31.916 58.4047 32C58.0593 32.0933 57.6207 32.14 57.0887 32.14ZM64.7281 27.31C65.5121 27.31 66.1607 27.394 66.6741 27.562C67.1874 27.7207 67.5654 27.968 67.8081 28.304C68.0601 28.64 68.1861 29.06 68.1861 29.564C68.1861 30.0587 68.0694 30.488 67.8361 30.852C67.6121 31.216 67.2527 31.5007 66.7581 31.706C66.2634 31.902 65.6147 32 64.8121 32H61.1721V24.356H63.2581V27.31H64.7281ZM66.1001 29.592C66.1001 29.2933 65.9787 29.0787 65.7361 28.948C65.5027 28.8173 65.1527 28.752 64.6861 28.752H63.2581V30.558H64.7141C65.1247 30.558 65.4561 30.4833 65.7081 30.334C65.9694 30.1847 66.1001 29.9373 66.1001 29.592Z" fill="#FCFCFC"/>
<g filter="url(#filter0_d_0_95)">
<circle cx="95" cy="26" r="18" fill="#FB4B59" fill-opacity="0.5"/>
</g>
<g filter="url(#filter1_d_0_95)">
<circle cx="95" cy="26" r="12" fill="#FB4B59" fill-opacity="0.5"/>
</g>
<g filter="url(#filter2_d_0_95)">
<circle cx="95" cy="26" r="6" fill="#F5606E"/>
</g>
<defs>
<filter id="filter0_d_0_95" x="62" y="0" width="66" height="66" filterUnits="userSpaceOnUse" color-interpolation-filters="sRGB">
<feFlood flood-opacity="0" result="BackgroundImageFix"/>
<feColorMatrix in="SourceAlpha" type="matrix" values="0 0 0 0 0 0 0 0 0 0 0 0 0 0 0 0 0 0 127 0" result="hardAlpha"/>
<feOffset dy="7"/>
<feGaussianBlur stdDeviation="7.5"/>
<feColorMatrix type="matrix" values="0 0 0 0 0.764706 0 0 0 0 0.729412 0 0 0 0 0.690196 0 0 0 0.2 0"/>
<feBlend mode="normal" in2="BackgroundImageFix" result="effect1_dropShadow_0_95"/>
<feBlend mode="normal" in="SourceGraphic" in2="effect1_dropShadow_0_95" result="shape"/>
</filter>
<filter id="filter1_d_0_95" x="68" y="6" width="54" height="54" filterUnits="userSpaceOnUse" color-interpolation-filters="sRGB">
<feFlood flood-opacity="0" result="BackgroundImageFix"/>
<feColorMatrix in="SourceAlpha" type="matrix" values="0 0 0 0 0 0 0 0 0 0 0 0 0 0 0 0 0 0 127 0" result="hardAlpha"/>
<feOffset dy="7"/>
<feGaussianBlur stdDeviation="7.5"/>
<feColorMatrix type="matrix" values="0 0 0 0 0.764706 0 0 0 0 0.729412 0 0 0 0 0.690196 0 0 0 0.2 0"/>
<feBlend mode="normal" in2="BackgroundImageFix" result="effect1_dropShadow_0_95"/>
<feBlend mode="normal" in="SourceGraphic" in2="effect1_dropShadow_0_95" result="shape"/>
</filter>
<filter id="filter2_d_0_95" x="74" y="12" width="42" height="42" filterUnits="userSpaceOnUse" color-interpolation-filters="sRGB">
<feFlood flood-opacity="0" result="BackgroundImageFix"/>
<feColorMatrix in="SourceAlpha" type="matrix" values="0 0 0 0 0 0 0 0 0 0 0 0 0 0 0 0 0 0 127 0" result="hardAlpha"/>
<feOffset dy="7"/>
<feGaussianBlur stdDeviation="7.5"/>
<feColorMatrix type="matrix" values="0 0 0 0 0.764706 0 0 0 0 0.729412 0 0 0 0 0.690196 0 0 0 0.2 0"/>
<feBlend mode="normal" in2="BackgroundImageFix" result="effect1_dropShadow_0_95"/>
<feBlend mode="normal" in="SourceGraphic" in2="effect1_dropShadow_0_95" result="shape"/>
</filter>
</defs>
</svg>
